<svg width="20" height="20" viewBox="0 0 20 20" fill="none" xmlns="http://www.w3.org/2000/svg">
<path d="M5.27511 11.2965C5.24089 11.9339 5.45971 12.5591 5.88398 13.036C6.30825 13.513 6.90366 13.8031 7.54073 13.8434C8.17641 13.8012 8.76984 13.5101 9.19246 13.0334C9.61507 12.5567 9.83283 11.9327 9.79854 11.2965C9.83289 10.6595 9.61538 10.0346 9.19295 9.55666C8.77053 9.07869 8.17708 8.78602 7.54073 8.74182C6.90299 8.78406 6.30757 9.07589 5.88349 9.55407C5.45941 10.0323 5.24083 10.6583 5.27511 11.2965ZM8.23604 11.2965C8.23604 11.8278 7.91573 12.2809 7.54073 12.2809C7.16573 12.2809 6.83761 11.8278 6.83761 11.2965C6.83761 10.7653 7.15792 10.3043 7.54073 10.3043C7.92354 10.3043 8.23604 10.7574 8.23604 11.2965ZM12.6657 8.74182C12.0294 8.78602 11.4359 9.07869 11.0135 9.55666C10.5911 10.0346 10.3736 10.6595 10.4079 11.2965C10.3736 11.9327 10.5914 12.5567 11.014 13.0334C11.4366 13.5101 12.0301 13.8012 12.6657 13.8434C13.3028 13.8031 13.8982 13.513 14.3225 13.036C14.7468 12.5591 14.9656 11.9339 14.9314 11.2965C14.9656 10.6583 14.7471 10.0323 14.323 9.55407C13.8989 9.07589 13.3035 8.78406 12.6657 8.74182ZM12.6657 12.2809C12.2907 12.2809 11.9704 11.8278 11.9704 11.2965C11.9704 10.7653 12.2907 10.3043 12.6657 10.3043C13.0407 10.3043 13.3689 10.7574 13.3689 11.2965C13.3689 11.8356 13.0485 12.2809 12.6657 12.2809Z" fill="#777E90"/>
<path d="M18.4078 5.92011L18.3531 5.8498C18.3531 5.8498 18.3531 5.79511 18.3531 5.77167C16.997 4.12462 15.1255 2.98247 13.0406 2.52948C12.9396 2.5003 12.8338 2.4918 12.7294 2.5045C12.625 2.5172 12.5243 2.55084 12.4332 2.6034C12.3422 2.65596 12.2627 2.72636 12.1995 2.81038C12.1362 2.89441 12.0906 2.99032 12.0654 3.09239C12.0401 3.19445 12.0358 3.30057 12.0525 3.40437C12.0692 3.50817 12.1067 3.60753 12.1628 3.69648C12.2188 3.78544 12.2923 3.86217 12.3787 3.92208C12.4651 3.98198 12.5627 4.02383 12.6656 4.04511C14.3897 4.41474 15.9423 5.34627 17.0797 6.69355C18.1335 9.11196 18.6837 11.7196 18.6969 14.3576C17.6089 15.3724 16.2536 16.0555 14.7906 16.3264V15.9904C14.7906 15.9904 14.7906 15.9514 14.7906 15.9279C15.7538 15.5543 16.6567 15.041 17.4703 14.4045C17.633 14.275 17.7375 14.0862 17.761 13.8796C17.7844 13.673 17.7248 13.4656 17.5953 13.3029C17.4658 13.1403 17.277 13.0357 17.0704 13.0123C16.8639 12.9888 16.6564 13.0484 16.4938 13.1779C14.6599 14.5686 12.4034 15.2859 10.1032 15.2092C7.8215 15.2733 5.58631 14.5567 3.76721 13.1779C3.68668 13.1138 3.5943 13.0662 3.49535 13.0377C3.39641 13.0093 3.29283 13.0007 3.19054 13.0123C2.98396 13.0357 2.79515 13.1403 2.66565 13.3029C2.53615 13.4656 2.47657 13.673 2.50001 13.8796C2.52345 14.0862 2.628 14.275 2.79065 14.4045C3.59876 15.0408 4.49648 15.5541 5.45471 15.9279V16.3264C3.99173 16.0555 2.63651 15.3724 1.54846 14.3576C1.56658 11.7185 2.12215 9.11083 3.18128 6.69355C4.31874 5.34627 5.87129 4.41474 7.59534 4.04511C7.78936 3.98905 7.95414 3.86002 8.0551 3.68511C8.15606 3.51019 8.18536 3.30297 8.13685 3.10692C8.08834 2.91087 7.9658 2.74123 7.79492 2.63357C7.62405 2.52591 7.41812 2.48861 7.22034 2.52948C5.13546 2.98247 3.26398 4.12462 1.90784 5.77167C1.90784 5.77167 1.90784 5.82636 1.90784 5.8498L1.85315 5.92011C0.337527 9.04511 0.165652 11.8967 0.00158937 14.6232C-0.00547635 14.7338 0.0110715 14.8447 0.0501338 14.9484C0.0891962 15.0521 0.149879 15.1463 0.228152 15.2248C1.81598 16.8431 3.93647 17.8312 6.1969 18.006C6.40185 18.0052 6.59826 17.9238 6.74378 17.7795C6.81759 17.7071 6.87632 17.6208 6.91655 17.5256C6.95678 17.4304 6.97772 17.3282 6.97815 17.2248V16.4435C9.03373 16.9244 11.1726 16.9244 13.2281 16.4435V17.2248C13.2286 17.3282 13.2495 17.4304 13.2897 17.5256C13.33 17.6208 13.3887 17.7071 13.4625 17.7795C13.608 17.9238 13.8044 18.0052 14.0094 18.006C16.2921 17.8602 18.4427 16.885 20.0563 15.2639C20.1345 15.1854 20.1952 15.0912 20.2343 14.9875C20.2734 14.8837 20.2899 14.7729 20.2828 14.6623C20.0953 11.8967 19.9235 9.07636 18.4078 5.92011Z" fill="#777E90"/>
<path d="M15.9548 6.85104C16.0022 6.75977 16.0311 6.66004 16.0399 6.55758C16.0486 6.45511 16.0371 6.35193 16.0059 6.25394C15.9747 6.15595 15.9244 6.06509 15.858 5.98656C15.7916 5.90804 15.7103 5.8434 15.6189 5.79635C13.8985 4.9763 12.0085 4.57475 10.1033 4.62448C8.19804 4.57475 6.30807 4.9763 4.58764 5.79635C4.4962 5.8434 4.41494 5.90804 4.34853 5.98656C4.28213 6.06509 4.23188 6.15595 4.20067 6.25394C4.16946 6.35193 4.1579 6.45511 4.16666 6.55758C4.17541 6.66004 4.20432 6.75977 4.2517 6.85104C4.34809 7.03437 4.51334 7.17192 4.71112 7.23345C4.90889 7.29498 5.12301 7.27545 5.30639 7.17916C6.80579 6.47795 8.44873 6.13813 10.1033 6.18698C11.7578 6.13813 13.4007 6.47795 14.9001 7.17916C15.0107 7.23885 15.1339 7.27101 15.2595 7.27291C15.403 7.27321 15.5437 7.234 15.6664 7.15959C15.789 7.08517 15.8888 6.97842 15.9548 6.85104Z" fill="#777E90"/>
</svg>
