<svg width="21" height="21" viewBox="0 0 21 21" fill="none" xmlns="http://www.w3.org/2000/svg">
<g clip-path="url(#clip0_1944_11587)">
<path fill-rule="evenodd" clip-rule="evenodd" d="M8.00507 9.32071C8.02951 9.77915 7.67769 10.1706 7.21925 10.195C6.59358 10.2284 6.09803 10.2692 5.71079 10.31C5.19074 10.3649 4.87475 10.6843 4.82222 11.1438C4.74681 11.8035 4.68125 12.8019 4.68125 14.2751C4.68125 15.7483 4.74681 16.7466 4.82222 17.4063C4.87484 17.8666 5.19003 18.1852 5.7093 18.24C6.61871 18.3359 8.122 18.4313 10.5 18.4313C12.878 18.4313 14.3813 18.3359 15.2907 18.24C15.81 18.1852 16.1252 17.8666 16.1778 17.4063C16.2532 16.7466 16.3188 15.7483 16.3188 14.2751C16.3188 12.8019 16.2532 11.8035 16.1778 11.1438C16.1253 10.6843 15.8093 10.3649 15.2892 10.31C14.902 10.2692 14.4064 10.2284 13.7808 10.195C13.3223 10.1706 12.9705 9.77915 12.9949 9.32071C13.0194 8.86228 13.4108 8.51045 13.8693 8.53489C14.52 8.56958 15.0444 8.61249 15.4636 8.6567C16.6975 8.78683 17.6817 9.66222 17.8295 10.955C17.9138 11.6918 17.9813 12.7552 17.9813 14.2751C17.9813 15.795 17.9138 16.8584 17.8295 17.5952C17.6818 18.8872 16.6999 19.763 15.4652 19.8933C14.4833 19.9969 12.9196 20.0938 10.5 20.0938C8.08041 20.0938 6.5167 19.9969 5.53481 19.8933C4.30013 19.763 3.31818 18.8872 3.17048 17.5952C3.08625 16.8584 3.01875 15.795 3.01875 14.2751C3.01875 12.7552 3.08625 11.6918 3.17048 10.955C3.31826 9.66222 4.3025 8.78683 5.53642 8.6567C5.95561 8.61249 6.48002 8.56958 7.13075 8.53489C7.58919 8.51045 7.98063 8.86228 8.00507 9.32071Z" fill="#777E91"/>
<path fill-rule="evenodd" clip-rule="evenodd" d="M8.17841 6.1348C7.85379 6.45943 7.32747 6.45943 7.00284 6.1348C6.67822 5.81018 6.67822 5.28386 7.00284 4.95924L9.91222 2.04986C10.2368 1.72524 10.7632 1.72524 11.0878 2.04986L13.9972 4.95924C14.3218 5.28386 14.3218 5.81018 13.9972 6.1348C13.6725 6.45943 13.1462 6.45943 12.8216 6.1348L11.3313 4.64446V12.6126C11.3313 13.0717 10.9591 13.4439 10.5 13.4439C10.0409 13.4439 9.66875 13.0717 9.66875 12.6126V4.64446L8.17841 6.1348Z" fill="#777E91"/>
</g>
<defs>
<clipPath id="clip0_1944_11587">
<rect width="19.95" height="19.95" fill="white" transform="translate(0.525002 0.975098)"/>
</clipPath>
</defs>
</svg>
